<svg xmlns="http://www.w3.org/2000/svg" width="203" height="51" viewBox="0 0 203 51" fill="none">
  <path d="M21.875 25C28.7109 25 34.375 19.4336 34.375 12.5C34.375 5.66406 28.7109 0 21.875 0C14.9414 0 9.375 5.66406 9.375 12.5C9.375 19.4336 14.9414 25 21.875 25ZM30.5664 28.125H28.9062C26.7578 29.1992 24.4141 29.6875 21.875 29.6875C19.3359 29.6875 16.8945 29.1992 14.7461 28.125H13.0859C5.85938 28.125 0 34.082 0 41.3086V45.3125C0 47.9492 2.05078 50 4.6875 50H31.4453C31.25 49.4141 31.1523 48.6328 31.25 47.9492L31.9336 41.9922L32.0312 40.918L40.332 32.6172C37.9883 29.8828 34.4727 28.125 30.5664 28.125ZM34.9609 42.3828L34.375 48.3398C34.2773 49.3164 35.0586 50.1953 36.0352 50L41.9922 49.4141L55.4688 35.9375L48.4375 28.9062L34.9609 42.3828ZM61.8164 26.2695L58.1055 22.5586C57.1289 21.6797 55.6641 21.6797 54.7852 22.5586L50.6836 26.6602L57.7148 33.6914L61.8164 29.5898C62.6953 28.7109 62.6953 27.2461 61.8164 26.2695Z" fill="#F0A500"/>
  <path d="M112.091 26.8835C111.31 17.8636 104.705 12.75 95.5426 12.75C85.7415 12.75 78 19.2841 78 31.429C78 43.5206 85.5284 50.108 95.5426 50.108C106.196 50.108 111.594 42.7216 112.091 36.5426L102.077 36.4716C101.58 39.5788 99.3778 41.5142 95.7557 41.5142C90.9439 41.5142 88.1562 38.1051 88.1562 31.429C88.1562 25.108 90.8551 21.3438 95.8267 21.3438C99.6264 21.3438 101.793 23.581 102.077 26.8835H112.091Z" fill="black"/>
  <path d="M129.78 50.108C137.344 50.108 142.209 46.4858 143.132 40.804H134.183C133.615 42.3487 131.999 43.2188 129.993 43.2188C127.081 43.2188 125.377 41.3011 125.377 38.6733V38.2472H143.132V35.9744C143.132 27.2919 137.806 21.983 129.567 21.983C121.115 21.983 115.718 27.5938 115.718 36.0455C115.718 44.87 121.044 50.108 129.78 50.108ZM125.377 32.8494C125.43 30.4879 127.383 28.8722 129.78 28.8722C132.213 28.8722 134.059 30.5057 134.112 32.8494H125.377Z" fill="black"/>
  <path d="M173.885 22.3381H163.587L159.183 40.3778H158.899L154.496 22.3381H144.198L153.36 49.6108H164.723L173.885 22.3381Z" fill="black"/>
  <path d="M188.911 50.108C196.475 50.108 201.34 46.4858 202.263 40.804H193.314C192.746 42.3487 191.13 43.2188 189.124 43.2188C186.212 43.2188 184.507 41.3011 184.507 38.6733V38.2472H202.263V35.9744C202.263 27.2919 196.936 21.983 188.698 21.983C180.246 21.983 174.848 27.5938 174.848 36.0455C174.848 44.87 180.175 50.108 188.911 50.108ZM184.507 32.8494C184.561 30.4879 186.514 28.8722 188.911 28.8722C191.343 28.8722 193.19 30.5057 193.243 32.8494H184.507Z" fill="black"/>
</svg>